<svg xmlns="http://www.w3.org/2000/svg" width="100" height="100" fill="none"><path fill="#CBFFC0" d="m73.543 12.2 1.456-2.522C59.58.774 40.421.774 25 9.678l1.456 2.522c14.525-8.382 32.566-8.382 47.088 0ZM2.913 52.98H0c0 17.804 9.58 34.397 24.999 43.3l1.456-2.522C11.935 85.373 2.913 69.748 2.913 52.98Zm94.174 0c0 16.767-9.02 32.393-23.542 40.778L75 96.281c15.421-8.904 25-25.494 25-43.302h-2.913ZM62.865 30.697c-7.934-4.581-17.793-4.581-25.727 0-7.934 4.582-12.865 13.119-12.865 22.281 0 9.163 4.928 17.7 12.865 22.282a25.703 25.703 0 0 0 12.865 3.436c4.448 0 8.898-1.144 12.865-3.436 7.934-4.582 12.865-13.119 12.865-22.282 0-9.162-4.934-17.7-12.868-22.28Zm-1.456 42.04c-7.037 4.063-15.78 4.063-22.814 0A22.879 22.879 0 0 1 27.186 52.98a22.879 22.879 0 0 1 11.409-19.76 22.822 22.822 0 0 1 11.408-3.046c3.947 0 7.89 1.017 11.409 3.047A22.879 22.879 0 0 1 72.82 52.978c0 8.127-4.374 15.696-11.411 19.76Z"/><path fill="#CBFFC0" d="M51.346 52.423a1.761 1.761 0 0 0-.134-.254 1.464 1.464 0 0 0-2.243-.221 1.462 1.462 0 0 0 .221 2.243 1.451 1.451 0 0 0 1.095.215 1.448 1.448 0 0 0 1.142-1.141 1.356 1.356 0 0 0 0-.57 1.52 1.52 0 0 0-.081-.272Z"/></svg>