<svg xmlns="http://www.w3.org/2000/svg" width="35" height="35" fill="none"><rect width="34" height="34" x=".5" y=".5" stroke="#191919" rx="3.5"/><path fill="#CBFFC0" d="M25.406 8.156H9.594a1.438 1.438 0 0 0-1.438 1.438v15.812a1.438 1.438 0 0 0 1.438 1.438h15.812a1.438 1.438 0 0 0 1.438-1.438V9.594a1.438 1.438 0 0 0-1.438-1.438ZM14.625 21.812a.719.719 0 1 1-1.438 0v-5.75a.719.719 0 1 1 1.438 0v5.75Zm-.719-7.187a1.078 1.078 0 1 1 0-2.155 1.078 1.078 0 0 1 0 2.155Zm8.625 7.188a.719.719 0 1 1-1.437 0v-3.235a1.797 1.797 0 0 0-3.594 0v3.235a.719.719 0 1 1-1.438 0v-5.75a.719.719 0 0 1 1.42-.16 3.234 3.234 0 0 1 5.05 2.675v3.235Z"/></svg>