<svg xmlns="http://www.w3.org/2000/svg" width="100" height="100" fill="none"><path fill="#CBFFC0" d="M93.027 69.261c-3.873-2.247-8.592-2.476-12.652-.693L69.322 49.417l-11.071-19.17c3.566-2.62 5.731-6.81 5.731-11.267C63.982 11.27 57.71 5 50.002 5c-7.71 0-13.98 6.273-13.98 13.98 0 4.458 2.168 8.65 5.73 11.267L19.615 68.583c-4.048-1.78-8.758-1.56-12.616.675a13.88 13.88 0 0 0-6.52 8.502 13.851 13.851 0 0 0 1.409 10.59 13.894 13.894 0 0 0 8.484 6.52 13.91 13.91 0 0 0 10.607-1.391c3.873-2.236 6.424-6.211 6.903-10.611h44.26c.479 4.4 3.027 8.379 6.9 10.61a13.853 13.853 0 0 0 10.595 1.398 13.884 13.884 0 0 0 8.496-6.524c3.849-6.677 1.557-15.239-5.105-19.091Zm-15.26.813a14.067 14.067 0 0 0-3.852 4.295 13.924 13.924 0 0 0-1.786 5.484H27.887a13.922 13.922 0 0 0-1.79-5.493 14.075 14.075 0 0 0-3.872-4.28l22.13-38.32a13.924 13.924 0 0 0 5.644 1.2c1.951 0 3.873-.415 5.644-1.2L66.71 50.922l11.056 19.151ZM39.033 18.977c0-6.047 4.921-10.968 10.969-10.968 6.047 0 10.968 4.92 10.968 10.968 0 3.892-2.102 7.53-5.49 9.493A10.895 10.895 0 0 1 50 29.946c-1.925 0-3.822-.509-5.482-1.476-3.382-1.963-5.484-5.598-5.484-9.493Zm-19.558 71.89a10.898 10.898 0 0 1-8.321 1.093 10.903 10.903 0 0 1-6.66-5.12 10.85 10.85 0 0 1-1.107-8.303 10.88 10.88 0 0 1 5.12-6.67 10.888 10.888 0 0 1 5.466-1.462c1.897 0 3.797.488 5.496 1.47a10.98 10.98 0 0 1 4.03 4 10.792 10.792 0 0 1 1.46 5.475v.012c0 3.91-2.102 7.553-5.484 9.505Zm76.049-4.024a10.904 10.904 0 0 1-6.665 5.117c-2.828.756-5.78.368-8.31-1.096-3.433-1.979-5.484-5.535-5.484-9.52a10.791 10.791 0 0 1 1.464-5.472 11.027 11.027 0 0 1 4.006-4.02 10.982 10.982 0 0 1 5.484-1.465c1.903 0 3.807.494 5.505 1.48 5.223 3.023 7.018 9.742 4 14.976Z"/></svg>