<svg xmlns="http://www.w3.org/2000/svg" width="753" height="528" fill="none"><g clip-path="url(#a)" opacity=".5"><g filter="url(#b)"><g filter="url(#c)" opacity=".8"><path fill="url(#d)" d="m562.835 180.698 7.123 11.554L364.87 313.245l-141.733 78.982 134.61-90.535 205.088-120.994z"/></g><g filter="url(#e)" opacity=".8"><path fill="url(#f)" d="m542.53 133.65 7.123 11.554-205.087 120.994-141.734 78.981 134.611-90.535L542.53 133.65z"/></g><g filter="url(#g)" opacity=".8" style="mix-blend-mode:soft-light"><path fill="url(#h)" d="m615.498 185.608 7.123 11.554-205.088 120.994L275.8 397.137l134.61-90.535 205.088-120.994z"/></g><g filter="url(#i)" style="mix-blend-mode:overlay"><path fill="url(#j)" d="m536.119 170.089 7.123 11.553-205.088 120.994-141.734 78.981 134.611-90.535 205.088-120.993z"/></g><g filter="url(#k)" opacity=".8"><path fill="url(#l)" d="m562.835 180.698 7.123 11.554L364.87 313.245l-141.733 78.982 134.61-90.535 205.088-120.994z"/></g><g filter="url(#m)" opacity=".8"><path fill="url(#n)" d="m542.53 133.65 7.123 11.554-205.087 120.994-141.734 78.981 134.611-90.535L542.53 133.65z"/></g><g filter="url(#o)" opacity=".8" style="mix-blend-mode:soft-light"><path fill="url(#p)" d="m615.498 185.608 7.123 11.554-205.088 120.994L275.8 397.137l134.61-90.535 205.088-120.994z"/></g><g filter="url(#q)" style="mix-blend-mode:overlay"><path fill="url(#r)" d="m536.119 170.089 7.123 11.553-205.088 120.994-141.734 78.981 134.611-90.535 205.088-120.993z"/></g><g filter="url(#s)" opacity=".8"><path fill="url(#t)" d="m562.835 180.698 7.123 11.554L364.87 313.245l-141.733 78.982 134.61-90.535 205.088-120.994z"/></g><g filter="url(#u)" opacity=".8"><path fill="url(#v)" d="m542.53 133.65 7.123 11.554-205.087 120.994-141.734 78.981 134.611-90.535L542.53 133.65z"/></g><g filter="url(#w)" opacity=".8" style="mix-blend-mode:soft-light"><path fill="url(#x)" d="m615.498 185.608 7.123 11.554-205.088 120.994L275.8 397.137l134.61-90.535 205.088-120.994z"/></g><g filter="url(#y)" style="mix-blend-mode:overlay"><path fill="url(#z)" d="m536.119 170.089 7.123 11.553-205.088 120.994-141.734 78.981 134.611-90.535 205.088-120.993z"/></g><g filter="url(#A)" opacity=".8"><path fill="url(#B)" d="m562.836 180.698 7.123 11.554-205.088 120.993-141.734 78.982 134.611-90.535 205.088-120.994z"/></g><g filter="url(#C)" opacity=".8"><path fill="url(#D)" d="m534.998 136.007 7.123 11.553-205.087 120.994L195.3 347.535 329.911 257l205.087-120.993z"/></g><g filter="url(#E)" opacity=".8" style="mix-blend-mode:soft-light"><path fill="url(#F)" d="m615.498 185.608 7.123 11.554-205.087 120.994L275.8 397.137l134.611-90.535 205.087-120.994z"/></g><g filter="url(#G)" style="mix-blend-mode:overlay"><path fill="url(#H)" d="m574.448 181.477 7.123 11.553-205.088 120.994-141.734 78.981L369.36 302.47l205.088-120.993z"/></g><g filter="url(#I)" style="mix-blend-mode:overlay"><path fill="url(#J)" d="m480.807 210.183 7.122 11.553L282.842 342.73l-141.734 78.981 134.611-90.535 205.088-120.993z"/></g></g><g filter="url(#K)" opacity=".8"><path fill="url(#L)" d="m549.928 188.264 8.661 13.411-249.362 140.448-172.331 91.681 163.67-105.092 249.362-140.448z"/></g><g filter="url(#M)" opacity=".8"><path fill="url(#N)" d="m525.24 133.65 8.661 13.412L284.538 287.51l-172.331 91.68 163.671-105.092L525.24 133.65z"/></g><g filter="url(#O)" opacity=".8" style="mix-blend-mode:soft-light"><path fill="url(#P)" d="m613.96 193.963 8.661 13.411-249.363 140.448-172.331 91.681 163.671-105.092L613.96 193.963z"/></g><g filter="url(#Q)" style="mix-blend-mode:overlay"><path fill="url(#R)" d="m517.444 175.947 8.661 13.411-249.363 140.448-172.331 91.681 163.671-105.092 249.362-140.448z"/></g><g filter="url(#S)" opacity=".8"><path fill="url(#T)" d="m545.169 192.029 9.228 14.336-265.689 150.132-183.613 98.001 174.386-112.337 265.688-150.132z"/></g><g filter="url(#U)" opacity=".8"><path fill="url(#V)" d="m518.864 133.65 9.228 14.336-265.688 150.132L78.79 396.119l174.386-112.337L518.864 133.65z"/></g><g filter="url(#W)" opacity=".8" style="mix-blend-mode:soft-light"><path fill="url(#X)" d="m613.393 198.121 9.228 14.336-265.689 150.131-183.613 98.002 174.386-112.337 265.688-150.132z"/></g><g filter="url(#Y)" style="mix-blend-mode:overlay"><path fill="url(#Z)" d="m510.558 178.864 9.228 14.336-265.688 150.131-183.614 98.002L244.87 328.996l265.688-150.132z"/></g><g filter="url(#aa)" opacity=".8"><path fill="url(#ab)" d="m546.332 188.263 9.089 13.411-261.697 140.448-180.856 91.681 171.767-105.092 261.697-140.448z"/></g><g filter="url(#ac)" opacity=".8"><path fill="url(#ad)" d="m520.423 133.649 9.089 13.412-261.697 140.448-180.856 91.68 171.767-105.092 261.697-140.448z"/></g><g filter="url(#ae)" opacity=".8" style="mix-blend-mode:soft-light"><path fill="url(#af)" d="m613.531 193.963 9.09 13.411-261.698 140.448-180.855 91.681 171.766-105.092 261.697-140.448z"/></g><g filter="url(#ag)" style="mix-blend-mode:overlay"><path fill="url(#ah)" d="m512.241 175.947 9.089 13.411-261.697 140.448-180.856 91.681 171.767-105.092 261.697-140.448z"/></g><g filter="url(#ai)" opacity=".8"><path fill="url(#aj)" d="m562.835 180.698 7.123 11.554-205.087 120.993-141.734 78.982 134.611-90.535 205.087-120.994z"/></g><g filter="url(#ak)" opacity=".8"><path fill="url(#al)" d="m534.791 168.273 8.793 13.842-253.169 144.95-174.962 94.62 166.169-108.461 253.169-144.951z"/></g><g filter="url(#am)" opacity=".8"><path fill="url(#an)" d="m514.456 136.007 8.793 13.841-253.169 144.95-174.962 94.62 166.169-108.461 253.169-144.95z"/></g><g filter="url(#ao)" opacity=".8" style="mix-blend-mode:soft-light"><path fill="url(#ap)" d="m613.828 195.429 8.793 13.841-253.169 144.95-174.961 94.62 166.168-108.461 253.169-144.95z"/></g><g filter="url(#aq)" style="mix-blend-mode:overlay"><path fill="url(#ar)" d="m563.154 190.48 8.793 13.842-253.169 144.95-174.962 94.62 166.169-108.461L563.154 190.48z"/></g><g filter="url(#as)" style="mix-blend-mode:overlay"><path fill="url(#at)" d="m447.559 224.87 8.793 13.841-253.169 144.951-174.962 94.619 166.169-108.46L447.559 224.87z"/></g></g><defs><filter id="b" width="640.403" height="446.95" x="61.663" y="54.206" color-interpolation-filters="sRGB" filterUnits="userSpaceOnUse"><feFlood flood-opacity="0" result="BackgroundImageFix"/><feBlend in="SourceGraphic" in2="BackgroundImageFix" result="shape"/><feGaussianBlur result="effect1_foregroundBlur_2295_6287" stdDeviation="39.722"/></filter><filter id="c" width="483.643" height="348.35" x="154.726" y="112.287" color-interpolation-filters="sRGB" filterUnits="userSpaceOnUse"><feFlood flood-opacity="0" result="BackgroundImageFix"/><feBlend in="SourceGraphic" in2="BackgroundImageFix" result="shape"/><feGaussianBlur result="effect1_foregroundBlur_2295_6287" stdDeviation="34.206"/></filter><filter id="e" width="483.643" height="348.35" x="134.421" y="65.239" color-interpolation-filters="sRGB" filterUnits="userSpaceOnUse"><feFlood flood-opacity="0" result="BackgroundImageFix"/><feBlend in="SourceGraphic" in2="BackgroundImageFix" result="shape"/><feGaussianBlur result="effect1_foregroundBlur_2295_6287" stdDeviation="34.206"/></filter><filter id="g" width="483.643" height="348.35" x="207.388" y="117.197" color-interpolation-filters="sRGB" filterUnits="userSpaceOnUse"><feFlood flood-opacity="0" result="BackgroundImageFix"/><feBlend in="SourceGraphic" in2="BackgroundImageFix" result="shape"/><feGaussianBlur result="effect1_foregroundBlur_2295_6287" stdDeviation="34.206"/></filter><filter id="i" width="424.659" height="289.367" x="157.501" y="131.17" color-interpolation-filters="sRGB" filterUnits="userSpaceOnUse"><feFlood flood-opacity="0" result="BackgroundImageFix"/><feBlend in="SourceGraphic" in2="BackgroundImageFix" result="shape"/><feGaussianBlur result="effect1_foregroundBlur_2295_6287" stdDeviation="19.46"/></filter><filter id="k" width="483.643" height="348.35" x="154.726" y="112.287" color-interpolation-filters="sRGB" filterUnits="userSpaceOnUse"><feFlood flood-opacity="0" result="BackgroundImageFix"/><feBlend in="SourceGraphic" in2="BackgroundImageFix" result="shape"/><feGaussianBlur result="effect1_foregroundBlur_2295_6287" stdDeviation="34.206"/></filter><filter id="m" width="483.643" height="348.35" x="134.421" y="65.239" color-interpolation-filters="sRGB" filterUnits="userSpaceOnUse"><feFlood flood-opacity="0" result="BackgroundImageFix"/><feBlend in="SourceGraphic" in2="BackgroundImageFix" result="shape"/><feGaussianBlur result="effect1_foregroundBlur_2295_6287" stdDeviation="34.206"/></filter><filter id="o" width="483.643" height="348.35" x="207.388" y="117.197" color-interpolation-filters="sRGB" filterUnits="userSpaceOnUse"><feFlood flood-opacity="0" result="BackgroundImageFix"/><feBlend in="SourceGraphic" in2="BackgroundImageFix" result="shape"/><feGaussianBlur result="effect1_foregroundBlur_2295_6287" stdDeviation="34.206"/></filter><filter id="q" width="424.659" height="289.367" x="157.501" y="131.17" color-interpolation-filters="sRGB" filterUnits="userSpaceOnUse"><feFlood flood-opacity="0" result="BackgroundImageFix"/><feBlend in="SourceGraphic" in2="BackgroundImageFix" result="shape"/><feGaussianBlur result="effect1_foregroundBlur_2295_6287" stdDeviation="19.46"/></filter><filter id="s" width="483.643" height="348.35" x="154.726" y="112.287" color-interpolation-filters="sRGB" filterUnits="userSpaceOnUse"><feFlood flood-opacity="0" result="BackgroundImageFix"/><feBlend in="SourceGraphic" in2="BackgroundImageFix" result="shape"/><feGaussianBlur result="effect1_foregroundBlur_2295_6287" stdDeviation="34.206"/></filter><filter id="u" width="483.643" height="348.35" x="134.421" y="65.239" color-interpolation-filters="sRGB" filterUnits="userSpaceOnUse"><feFlood flood-opacity="0" result="BackgroundImageFix"/><feBlend in="SourceGraphic" in2="BackgroundImageFix" result="shape"/><feGaussianBlur result="effect1_foregroundBlur_2295_6287" stdDeviation="34.206"/></filter><filter id="w" width="483.643" height="348.35" x="207.388" y="117.197" color-interpolation-filters="sRGB" filterUnits="userSpaceOnUse"><feFlood flood-opacity="0" result="BackgroundImageFix"/><feBlend in="SourceGraphic" in2="BackgroundImageFix" result="shape"/><feGaussianBlur result="effect1_foregroundBlur_2295_6287" stdDeviation="34.206"/></filter><filter id="y" width="424.659" height="289.367" x="157.501" y="131.17" color-interpolation-filters="sRGB" filterUnits="userSpaceOnUse"><feFlood flood-opacity="0" result="BackgroundImageFix"/><feBlend in="SourceGraphic" in2="BackgroundImageFix" result="shape"/><feGaussianBlur result="effect1_foregroundBlur_2295_6287" stdDeviation="19.46"/></filter><filter id="A" width="483.643" height="348.35" x="154.726" y="112.287" color-interpolation-filters="sRGB" filterUnits="userSpaceOnUse"><feFlood flood-opacity="0" result="BackgroundImageFix"/><feBlend in="SourceGraphic" in2="BackgroundImageFix" result="shape"/><feGaussianBlur result="effect1_foregroundBlur_2295_6287" stdDeviation="34.206"/></filter><filter id="C" width="483.643" height="348.35" x="126.889" y="67.596" color-interpolation-filters="sRGB" filterUnits="userSpaceOnUse"><feFlood flood-opacity="0" result="BackgroundImageFix"/><feBlend in="SourceGraphic" in2="BackgroundImageFix" result="shape"/><feGaussianBlur result="effect1_foregroundBlur_2295_6287" stdDeviation="34.206"/></filter><filter id="E" width="483.643" height="348.35" x="207.389" y="117.197" color-interpolation-filters="sRGB" filterUnits="userSpaceOnUse"><feFlood flood-opacity="0" result="BackgroundImageFix"/><feBlend in="SourceGraphic" in2="BackgroundImageFix" result="shape"/><feGaussianBlur result="effect1_foregroundBlur_2295_6287" stdDeviation="34.206"/></filter><filter id="G" width="424.659" height="289.367" x="195.83" y="142.557" color-interpolation-filters="sRGB" filterUnits="userSpaceOnUse"><feFlood flood-opacity="0" result="BackgroundImageFix"/><feBlend in="SourceGraphic" in2="BackgroundImageFix" result="shape"/><feGaussianBlur result="effect1_foregroundBlur_2295_6287" stdDeviation="19.46"/></filter><filter id="I" width="424.659" height="289.367" x="102.189" y="171.263" color-interpolation-filters="sRGB" filterUnits="userSpaceOnUse"><feFlood flood-opacity="0" result="BackgroundImageFix"/><feBlend in="SourceGraphic" in2="BackgroundImageFix" result="shape"/><feGaussianBlur result="effect1_foregroundBlur_2295_6287" stdDeviation="19.46"/></filter><filter id="K" width="558.515" height="382.362" x="68.484" y="119.853" color-interpolation-filters="sRGB" filterUnits="userSpaceOnUse"><feFlood flood-opacity="0" result="BackgroundImageFix"/><feBlend in="SourceGraphic" in2="BackgroundImageFix" result="shape"/><feGaussianBlur result="effect1_foregroundBlur_2295_6287" stdDeviation="34.206"/></filter><filter id="M" width="558.515" height="382.362" x="43.796" y="65.239" color-interpolation-filters="sRGB" filterUnits="userSpaceOnUse"><feFlood flood-opacity="0" result="BackgroundImageFix"/><feBlend in="SourceGraphic" in2="BackgroundImageFix" result="shape"/><feGaussianBlur result="effect1_foregroundBlur_2295_6287" stdDeviation="34.206"/></filter><filter id="O" width="558.515" height="382.362" x="132.516" y="125.552" color-interpolation-filters="sRGB" filterUnits="userSpaceOnUse"><feFlood flood-opacity="0" result="BackgroundImageFix"/><feBlend in="SourceGraphic" in2="BackgroundImageFix" result="shape"/><feGaussianBlur result="effect1_foregroundBlur_2295_6287" stdDeviation="34.206"/></filter><filter id="Q" width="499.532" height="323.378" x="65.492" y="137.028" color-interpolation-filters="sRGB" filterUnits="userSpaceOnUse"><feFlood flood-opacity="0" result="BackgroundImageFix"/><feBlend in="SourceGraphic" in2="BackgroundImageFix" result="shape"/><feGaussianBlur result="effect1_foregroundBlur_2295_6287" stdDeviation="19.46"/></filter><filter id="S" width="586.124" height="399.291" x="36.684" y="123.618" color-interpolation-filters="sRGB" filterUnits="userSpaceOnUse"><feFlood flood-opacity="0" result="BackgroundImageFix"/><feBlend in="SourceGraphic" in2="BackgroundImageFix" result="shape"/><feGaussianBlur result="effect1_foregroundBlur_2295_6287" stdDeviation="34.206"/></filter><filter id="U" width="586.124" height="399.291" x="10.379" y="65.239" color-interpolation-filters="sRGB" filterUnits="userSpaceOnUse"><feFlood flood-opacity="0" result="BackgroundImageFix"/><feBlend in="SourceGraphic" in2="BackgroundImageFix" result="shape"/><feGaussianBlur result="effect1_foregroundBlur_2295_6287" stdDeviation="34.206"/></filter><filter id="W" width="586.124" height="399.291" x="104.908" y="129.71" color-interpolation-filters="sRGB" filterUnits="userSpaceOnUse"><feFlood flood-opacity="0" result="BackgroundImageFix"/><feBlend in="SourceGraphic" in2="BackgroundImageFix" result="shape"/><feGaussianBlur result="effect1_foregroundBlur_2295_6287" stdDeviation="34.206"/></filter><filter id="Y" width="527.14" height="340.307" x="31.565" y="139.945" color-interpolation-filters="sRGB" filterUnits="userSpaceOnUse"><feFlood flood-opacity="0" result="BackgroundImageFix"/><feBlend in="SourceGraphic" in2="BackgroundImageFix" result="shape"/><feGaussianBlur result="effect1_foregroundBlur_2295_6287" stdDeviation="19.46"/></filter><filter id="aa" width="579.375" height="382.362" x="44.457" y="119.852" color-interpolation-filters="sRGB" filterUnits="userSpaceOnUse"><feFlood flood-opacity="0" result="BackgroundImageFix"/><feBlend in="SourceGraphic" in2="BackgroundImageFix" result="shape"/><feGaussianBlur result="effect1_foregroundBlur_2295_6287" stdDeviation="34.206"/></filter><filter id="ac" width="579.375" height="382.362" x="18.548" y="65.238" color-interpolation-filters="sRGB" filterUnits="userSpaceOnUse"><feFlood flood-opacity="0" result="BackgroundImageFix"/><feBlend in="SourceGraphic" in2="BackgroundImageFix" result="shape"/><feGaussianBlur result="effect1_foregroundBlur_2295_6287" stdDeviation="34.206"/></filter><filter id="ae" width="579.375" height="382.362" x="111.656" y="125.552" color-interpolation-filters="sRGB" filterUnits="userSpaceOnUse"><feFlood flood-opacity="0" result="BackgroundImageFix"/><feBlend in="SourceGraphic" in2="BackgroundImageFix" result="shape"/><feGaussianBlur result="effect1_foregroundBlur_2295_6287" stdDeviation="34.206"/></filter><filter id="ag" width="520.391" height="323.378" x="39.858" y="137.028" color-interpolation-filters="sRGB" filterUnits="userSpaceOnUse"><feFlood flood-opacity="0" result="BackgroundImageFix"/><feBlend in="SourceGraphic" in2="BackgroundImageFix" result="shape"/><feGaussianBlur result="effect1_foregroundBlur_2295_6287" stdDeviation="19.46"/></filter><filter id="ai" width="483.643" height="348.35" x="154.726" y="112.287" color-interpolation-filters="sRGB" filterUnits="userSpaceOnUse"><feFlood flood-opacity="0" result="BackgroundImageFix"/><feBlend in="SourceGraphic" in2="BackgroundImageFix" result="shape"/><feGaussianBlur result="effect1_foregroundBlur_2295_6287" stdDeviation="34.206"/></filter><filter id="ak" width="564.953" height="390.233" x="47.042" y="99.862" color-interpolation-filters="sRGB" filterUnits="userSpaceOnUse"><feFlood flood-opacity="0" result="BackgroundImageFix"/><feBlend in="SourceGraphic" in2="BackgroundImageFix" result="shape"/><feGaussianBlur result="effect1_foregroundBlur_2295_6287" stdDeviation="34.206"/></filter><filter id="am" width="564.953" height="390.233" x="26.707" y="67.596" color-interpolation-filters="sRGB" filterUnits="userSpaceOnUse"><feFlood flood-opacity="0" result="BackgroundImageFix"/><feBlend in="SourceGraphic" in2="BackgroundImageFix" result="shape"/><feGaussianBlur result="effect1_foregroundBlur_2295_6287" stdDeviation="34.206"/></filter><filter id="ao" width="564.953" height="390.233" x="126.079" y="127.018" color-interpolation-filters="sRGB" filterUnits="userSpaceOnUse"><feFlood flood-opacity="0" result="BackgroundImageFix"/><feBlend in="SourceGraphic" in2="BackgroundImageFix" result="shape"/><feGaussianBlur result="effect1_foregroundBlur_2295_6287" stdDeviation="34.206"/></filter><filter id="aq" width="505.969" height="331.249" x="104.897" y="151.561" color-interpolation-filters="sRGB" filterUnits="userSpaceOnUse"><feFlood flood-opacity="0" result="BackgroundImageFix"/><feBlend in="SourceGraphic" in2="BackgroundImageFix" result="shape"/><feGaussianBlur result="effect1_foregroundBlur_2295_6287" stdDeviation="19.46"/></filter><filter id="as" width="505.969" height="331.249" x="-10.698" y="185.951" color-interpolation-filters="sRGB" filterUnits="userSpaceOnUse"><feFlood flood-opacity="0" result="BackgroundImageFix"/><feBlend in="SourceGraphic" in2="BackgroundImageFix" result="shape"/><feGaussianBlur result="effect1_foregroundBlur_2295_6287" stdDeviation="19.46"/></filter><linearGradient id="d" x1="566.397" x2="363.742" y1="186.475" y2="311.416" gradientUnits="userSpaceOnUse"><stop stop-color="#fff"/><stop offset="1" stop-color="#DCFC36"/></linearGradient><linearGradient id="f" x1="546.092" x2="343.438" y1="139.427" y2="264.368" gradientUnits="userSpaceOnUse"><stop stop-color="#fff"/><stop offset="1" stop-color="#DCFC36"/></linearGradient><linearGradient id="h" x1="619.059" x2="416.405" y1="191.385" y2="316.326" gradientUnits="userSpaceOnUse"><stop stop-color="#fff"/><stop offset="1" stop-color="#DCFC36"/></linearGradient><linearGradient id="j" x1="539.68" x2="337.026" y1="175.866" y2="300.806" gradientUnits="userSpaceOnUse"><stop stop-color="#fff"/><stop offset="1" stop-color="#fff"/></linearGradient><linearGradient id="l" x1="566.397" x2="363.742" y1="186.475" y2="311.416" gradientUnits="userSpaceOnUse"><stop stop-color="#fff"/><stop offset="1" stop-color="#DCFC36"/></linearGradient><linearGradient id="n" x1="546.092" x2="343.438" y1="139.427" y2="264.368" gradientUnits="userSpaceOnUse"><stop stop-color="#fff"/><stop offset="1" stop-color="#DCFC36"/></linearGradient><linearGradient id="p" x1="619.059" x2="416.405" y1="191.385" y2="316.326" gradientUnits="userSpaceOnUse"><stop stop-color="#fff"/><stop offset="1" stop-color="#DCFC36"/></linearGradient><linearGradient id="r" x1="539.68" x2="337.026" y1="175.866" y2="300.806" gradientUnits="userSpaceOnUse"><stop stop-color="#fff"/><stop offset="1" stop-color="#fff"/></linearGradient><linearGradient id="t" x1="566.397" x2="363.742" y1="186.475" y2="311.416" gradientUnits="userSpaceOnUse"><stop stop-color="#fff"/><stop offset="1" stop-color="#DCFC36"/></linearGradient><linearGradient id="v" x1="546.092" x2="343.438" y1="139.427" y2="264.368" gradientUnits="userSpaceOnUse"><stop stop-color="#fff"/><stop offset="1" stop-color="#DCFC36"/></linearGradient><linearGradient id="x" x1="619.059" x2="416.405" y1="191.385" y2="316.326" gradientUnits="userSpaceOnUse"><stop stop-color="#fff"/><stop offset="1" stop-color="#DCFC36"/></linearGradient><linearGradient id="z" x1="539.68" x2="337.026" y1="175.866" y2="300.806" gradientUnits="userSpaceOnUse"><stop stop-color="#fff"/><stop offset="1" stop-color="#fff"/></linearGradient><linearGradient id="B" x1="566.397" x2="363.743" y1="186.475" y2="311.416" gradientUnits="userSpaceOnUse"><stop stop-color="#fff"/><stop offset=".557" stop-color="#FD8181"/><stop offset="1" stop-color="#FD8181"/></linearGradient><linearGradient id="D" x1="538.56" x2="335.906" y1="141.784" y2="266.724" gradientUnits="userSpaceOnUse"><stop stop-color="#fff"/><stop offset="1" stop-color="#DCFC36"/></linearGradient><linearGradient id="F" x1="619.06" x2="416.406" y1="191.385" y2="316.326" gradientUnits="userSpaceOnUse"><stop stop-color="#fff"/><stop offset=".557" stop-color="#FD8181"/><stop offset="1" stop-color="#FD8181"/></linearGradient><linearGradient id="H" x1="578.009" x2="375.355" y1="187.253" y2="312.194" gradientUnits="userSpaceOnUse"><stop stop-color="#fff"/><stop offset="1" stop-color="#fff"/></linearGradient><linearGradient id="J" x1="484.368" x2="281.714" y1="215.959" y2="340.9" gradientUnits="userSpaceOnUse"><stop stop-color="#fff"/><stop offset="1" stop-color="#fff"/></linearGradient><linearGradient id="L" x1="554.259" x2="314.278" y1="194.969" y2="349.945" gradientUnits="userSpaceOnUse"><stop stop-color="#fff"/><stop offset="1" stop-color="#DCFC36"/></linearGradient><linearGradient id="N" x1="529.57" x2="289.59" y1="140.356" y2="295.331" gradientUnits="userSpaceOnUse"><stop stop-color="#fff"/><stop offset="1" stop-color="#DCFC36"/></linearGradient><linearGradient id="P" x1="618.29" x2="378.31" y1="200.668" y2="355.644" gradientUnits="userSpaceOnUse"><stop stop-color="#fff"/><stop offset="1" stop-color="#DCFC36"/></linearGradient><linearGradient id="R" x1="521.774" x2="281.794" y1="182.653" y2="337.628" gradientUnits="userSpaceOnUse"><stop stop-color="#fff"/><stop offset="1" stop-color="#fff"/></linearGradient><linearGradient id="T" x1="549.783" x2="293.601" y1="199.197" y2="364.097" gradientUnits="userSpaceOnUse"><stop stop-color="#fff"/><stop offset="1" stop-color="#DCFC36"/></linearGradient><linearGradient id="V" x1="523.478" x2="267.296" y1="140.818" y2="305.718" gradientUnits="userSpaceOnUse"><stop stop-color="#fff"/><stop offset="1" stop-color="#DCFC36"/></linearGradient><linearGradient id="X" x1="618.007" x2="361.825" y1="205.289" y2="370.189" gradientUnits="userSpaceOnUse"><stop stop-color="#fff"/><stop offset="1" stop-color="#DCFC36"/></linearGradient><linearGradient id="Z" x1="515.172" x2="258.99" y1="186.032" y2="350.932" gradientUnits="userSpaceOnUse"><stop stop-color="#fff"/><stop offset="1" stop-color="#fff"/></linearGradient><linearGradient id="ab" x1="550.877" x2="306.322" y1="194.968" y2="360.71" gradientUnits="userSpaceOnUse"><stop stop-color="#fff"/><stop offset="1" stop-color="#DCFC36"/></linearGradient><linearGradient id="ad" x1="524.968" x2="280.412" y1="140.355" y2="306.097" gradientUnits="userSpaceOnUse"><stop stop-color="#fff"/><stop offset="1" stop-color="#DCFC36"/></linearGradient><linearGradient id="af" x1="618.076" x2="373.521" y1="200.668" y2="366.41" gradientUnits="userSpaceOnUse"><stop stop-color="#fff"/><stop offset="1" stop-color="#DCFC36"/></linearGradient><linearGradient id="ah" x1="516.786" x2="272.231" y1="182.653" y2="348.394" gradientUnits="userSpaceOnUse"><stop stop-color="#fff"/><stop offset="1" stop-color="#fff"/></linearGradient><linearGradient id="aj" x1="566.397" x2="363.743" y1="186.475" y2="311.416" gradientUnits="userSpaceOnUse"><stop stop-color="#fff"/><stop offset=".557" stop-color="#FD8181"/><stop offset="1" stop-color="#FD8181"/></linearGradient><linearGradient id="al" x1="539.187" x2="293.207" y1="175.194" y2="331.46" gradientUnits="userSpaceOnUse"><stop stop-color="#fff"/><stop offset=".557" stop-color="#FD8181"/><stop offset="1" stop-color="#FD8181"/></linearGradient><linearGradient id="an" x1="518.852" x2="272.872" y1="142.927" y2="299.193" gradientUnits="userSpaceOnUse"><stop stop-color="#fff"/><stop offset="1" stop-color="#DCFC36"/></linearGradient><linearGradient id="ap" x1="618.225" x2="372.244" y1="202.349" y2="358.615" gradientUnits="userSpaceOnUse"><stop stop-color="#fff"/><stop offset=".557" stop-color="#FD8181"/><stop offset="1" stop-color="#FD8181"/></linearGradient><linearGradient id="ar" x1="567.55" x2="321.569" y1="197.401" y2="353.667" gradientUnits="userSpaceOnUse"><stop stop-color="#fff"/><stop offset="1" stop-color="#fff"/></linearGradient><linearGradient id="at" x1="451.955" x2="205.975" y1="231.791" y2="388.056" gradientUnits="userSpaceOnUse"><stop stop-color="#fff"/><stop offset="1" stop-color="#fff"/></linearGradient><clipPath id="a"><path fill="#fff" d="M753 0H0v527.599h753z"/></clipPath></defs></svg>